<svg xmlns="http://www.w3.org/2000/svg" viewBox="0 0 511.31 359.1"><defs><style>.cls-1{fill:#03045e;}</style></defs><title>Recurso 6</title><g id="Capa_2" data-name="Capa 2"><g id="Capa_1-2" data-name="Capa 1"><path class="cls-1" d="M501.47,208.42c-7.7-7.58-15.28-15.28-23-22.89-6.74-6.69-12.17-7.58-20.67-3.36-15.87,7.89-31.75,15.75-47.57,23.76-16.33,8.27-19.56,7.13-18.64,29.73.11,2.93-.47,4-3.72,3.92-11-.23-21.95-.14-32.92,0a6.57,6.57,0,0,1-5.22-2.13c-5.58-5.71-11.2-11.37-16.95-16.9a7.07,7.07,0,0,1-2.15-5.73c.08-13.46.11-26.93,0-40.39a7.58,7.58,0,0,1,2.56-6.06c7.14-7,14.16-14.05,21.19-21.12,9.92-10,8.07-20.91-4.61-27.23-16.3-8.14-32.58-16.31-48.94-24.34a12.53,12.53,0,0,1-6-6.12q-12.29-25-24.85-49.79c-5.67-11.23-16.78-13.06-25.71-4.35-2.26,2.21-4.44,4.49-6.71,6.69-3.79,3.69-7.49,10.11-11.47,10.29-4.55.22-7.72-6.88-11.88-10.36a8.7,8.7,0,0,1-3.31-7.75c.27-6,.11-12,.07-17.95-.07-10-6.2-16.18-16.11-16.24-9,0-18,.12-26.93-.06a17.83,17.83,0,0,0-13.77,5.73c-5.11,5.23-10.8,10-15.38,15.63-5.63,6.94-12.16,9.49-21,8.85-6.09-.43-11.56-1.35-17-4.19C85.28,18,69.63,10.43,54.08,2.66,51.39,1.31,48.71.05,45.61.05,35.47.06,25.32-.08,15.19.1A14.88,14.88,0,0,0,.49,14.7c-.12,3,.25,6-.07,9-1.86,16.93,2.52,32.07,10.81,47,11,19.69,8.25,36.6-6.45,53.59-5.9,6.84-5.79,14.93.44,21.47,3.44,3.61,7.05,7,10.56,10.59,4.8,4.84,11.46,8.93,13.84,14.76,2.44,6,.69,13.71.78,20.67,0,.17,0,.33,0,.5-.46,5.89,1.84,10.54,6,14.65q28.5,28.29,56.79,56.77c5,5,10.63,7.35,17.56,4.7,6.27-2.4,9.45-7.88,9.46-16,0-18.29-.08-36.58.06-54.86a26.24,26.24,0,0,0-3-12.4c-7.56-14.92-14.79-30-22.55-44.83C89,129.39,90.41,118,90.37,105.84c10.42,8.22,20.07,15.82,29.69,23.45,5.34,4.23,12.67,7.52,15.35,13.05s.9,13.34.69,20.13c-.21,7,2.57,12,8.4,15.82,11.14,7.23,22.06,14.8,33.21,22a6.52,6.52,0,0,1,3.42,6.39c-.17,12.47.85,25-.31,37.38-1.37,14.68,4.32,22.83,17.73,28.69C226.49,285,254.17,298,273.61,323.18c3.55,4.59,8.63,6.24,14.54,6.17,16.46-.19,32.92,0,49.38-.12a19.26,19.26,0,0,1,9,2.09c17.49,8.73,35,17.44,52.61,25.92,11.16,5.38,22.12-1.46,22.34-13.67.06-3.65.14-7.32,0-11-.13-2.49.48-3.82,3.23-3.32,13.69,2.48,23.76-3.35,31.86-13.81.81-1,2-1.78,2.78-2.85,7.85-11.25,18.44-15.53,32-13.35,9.19,1.48,16-2.36,19.95-10.89V220.54C508.81,215.86,505.22,212.1,501.47,208.42Zm-20,57.82c.13,2.75-.92,3.64-3.38,3.17-14.29-2.75-24,4.39-32.59,14.57-4.6,5.43-9.28,12-15.39,14.6-5.91,2.53-13.7.74-20.67.76-12.07.05-17.74,5.58-17.84,17.52v3.29c-12.69-6.22-24.76-12-36.73-18a25.5,25.5,0,0,0-11.94-2.81c-15.62.13-31.25,0-46.88.12a7.94,7.94,0,0,1-6.88-2.95c-15.17-18.2-34-31.22-55.89-40.21-6.56-2.71-12.67-6.5-19.13-9.48-2.52-1.16-3.23-2.56-3.21-5.25.14-14.79-.11-29.59.15-44.38.12-7.41-2.76-12.6-8.94-16.56-10.76-6.89-21.24-14.22-32-21.14-2.94-1.9-4.38-3.87-4.15-7.53.35-5.46.05-11,.1-16.45a15.07,15.07,0,0,0-5.88-12.6Q122.69,93.2,85.11,63.58c-5-3.92-10.46-5-16.28-2.1s-8.54,8-8.52,14.58c.06,15.79,0,31.58,0,47.37a66.28,66.28,0,0,0,7.38,29.68c5.78,11.55,10.91,23.49,17.56,34.52,5.77,9.57,5,19.44,4.87,30.86-10.09-10.18-19.36-19.58-28.69-28.92-1.24-1.24-1.14-2.65-1.14-4.13,0-6.15-.19-12.31.05-18.45a18.33,18.33,0,0,0-6.08-14.63c-5.51-5.3-10.79-10.84-16.28-16.16-1.75-1.69-2.3-2.86-.88-5.34C50.65,107.13,51,83,39,58.55c-2-4-3.65-8.23-6.08-11.95-3-4.57-2.45-9.47-2.52-14.4,0-1.3.07-2.34,1.79-2.22,4.55.3,9-.48,13.56,1.86,16.76,8.69,33.77,16.9,50.62,25.42A24,24,0,0,0,107.82,60c8.81-.15,17.62-.17,26.43,0a18,18,0,0,0,13.8-5.68c7.23-7.35,14.74-14.42,21.76-22,3.13-3.37,6.68-2.14,10.14-2.22,1.76,0,1.13,1.79,1.07,2.76-1.3,20.69,1.24,19.12,14.73,33,6,6.19,12.19,12.26,18.33,18.34,7.65,7.57,16,7.66,23.59.15,4.58-4.55,9-9.27,13.93-14.41,6.31,12.58,12.5,24.27,18,36.25a28.13,28.13,0,0,0,14.59,14.72c11,5,21.62,10.81,32.53,16,3.4,1.62,3.15,2.71.69,5-3.91,3.6-7.53,7.51-11.33,11.23A17.13,17.13,0,0,0,300.75,166q.13,28.68,0,57.35a16.8,16.8,0,0,0,5.15,12.5q14.29,14.26,28.57,28.56a16.83,16.83,0,0,0,12.54,5c19.45-.09,38.91,0,58.36,0,9.9,0,16.05-6.27,16.13-16.22,0-4,.36-8-.08-12-.62-5.47,1.16-8.49,6.46-10.83,11.05-4.86,21.74-10.55,32.49-16.09,2.35-1.22,3.72-1,5.52.9,5,5.32,12,9.64,14.82,15.88,2.55,5.68.63,13.38.66,20.19C481.4,256.27,481.21,261.26,481.45,266.24Z"/></g></g></svg>