<svg xmlns="http://www.w3.org/2000/svg" viewBox="0 0 383.91 383.87"><defs><style>.cls-1{fill:#03045e;}.cls-2{fill:#c5a47e;}.cls-3{fill:#fdfdfd;}</style></defs><title>Recurso 5</title><g id="Capa_2" data-name="Capa 2"><g id="Capa_1-2" data-name="Capa 1"><path class="cls-1" d="M228,239.78c0,5.25,0,10,0,14.74-.12,14.43-10.53,25.27-24.4,25.43s-24.89-11-25.06-25.34c-.09-7.49-.31-15,.09-22.48.23-4.41-3.21-5.83-5.3-8.4-.56-.69-1.11-.14-1.55.29-.72.69-1.42,1.4-2.13,2.11q-61.36,61.35-122.73,122.7c-10.59,10.58-25.12,11.94-36.27,3.5a27,27,0,0,1-9.14-12.51c-.4-1.1-.19-2.52-1.48-3.23,2.13.27,2.1,2.22,2.68,3.59,5.56,13.22,19.06,19.47,32.66,15.14,4.19-1.34,7.39-4,10.42-7.08Q106,287.92,166.35,227.65c1.06-1.06,2.14-2.1,3.2-3.16,2-2,3.83-1.75,5.88.06,2.68,2.37,4.19,5,4.09,8.78-.18,7.12-.28,14.25,0,21.36.41,10.05,4.86,17.86,14.25,22,14.77,6.5,32-2.76,33.06-20.22.26-4.36-.06-8.75.09-13.12C227,241.35,227.27,240.21,228,239.78Z"/><path class="cls-1" d="M326.82,306.42a33.56,33.56,0,0,1-21.61-32,31.38,31.38,0,0,1,5.22-16.93c6.33-9.49,7.85-20.09,7.25-31.14a12.26,12.26,0,0,0-24.51.57q-.09,34.48,0,69c0,7.64,2.7,14.59,6,21.41A33,33,0,0,1,280.72,363c-13.45,4.73-25.56,1.82-35.3-8.44s-12.28-22.73-6.38-35.64a69.59,69.59,0,0,0,6.35-31.51c-.36-13.61-.15-27.24,0-40.86,0-2.43-.56-3.18-3.07-3-4.92.44-9.46-1.12-14.17-3.89.69-.3,1.75-.06,3.36.62a27.51,27.51,0,0,0,10.15,2.34c3.74.09,4.5.8,4.51,4.41.08,17.49.23,35-.07,52.47-.1,5.94-2.39,11.46-5,16.77-3.52,7.17-4.86,14.6-3.05,22.54A32.44,32.44,0,0,0,271,364c15.14-.56,28-12.58,30.27-27.87A30.18,30.18,0,0,0,298.33,318a60,60,0,0,1-6.3-28.2c.27-20.36.07-40.73.09-61.09,0-5.25,1.3-10,6.06-12.94,8.83-5.47,19.37-.24,20.5,10.37a47.79,47.79,0,0,1-4.08,25.6c-1.27,2.72-2.79,5.3-4.25,7.92-10.22,18.33-.1,42.22,20.19,46.72,22.4,5,38.91-10.33,40.13-30.33a28.22,28.22,0,0,0-4.24-16.49,51.89,51.89,0,0,1-7.67-29.25c.33-13.49.08-27,.07-40.48a13.15,13.15,0,0,0-.58-5.18c-.85-2-2.29-3.34-4.6-3.09s-3.51,1.74-3.86,4a28.33,28.33,0,0,0-.14,4.12c0,14.61.06,29.23,0,43.85A54.22,54.22,0,0,0,357.32,262c3.5,5.89,5.38,12.06,3.42,19-2.48,8.72-8.14,14.46-16.82,16.41-8.84,2-17.05-.1-23-7.41s-7.61-15.51-3.21-24.13c3.81-7.46,8-14.68,9.29-23.16,1-6.83,1.79-13.63.31-20.48-2.37-10.92-12.62-18.85-23.16-17.92-11.73,1-20.95,10-21.11,21.5q-.48,36,0,72c.11,7.39,2.42,14.48,5.71,21.2,2.78,5.66,4.7,11.46,3.07,18-3,12.22-15.52,20.23-27.47,17.26-12.95-3.22-20.5-15.9-17-28.48,1-3.64,2.94-6.89,4.29-10.38a53.79,53.79,0,0,0,3.74-19.75q-.09-37.48,0-75c0-8.13-3.54-14-10.57-17.56s-13.88-2.42-20,2.42c-5.21,4.11-7,9.91-7.08,16.26-.13,11,0,22-.05,33,0,4.77-1.62,8.84-5.51,11.75a14.21,14.21,0,0,1-14.9,1.74c-5.34-2.34-8.09-7-8.52-12.75-.36-4.85-.1-9.74-.1-14.61,0-15.12.06-30.23-.06-45.35a11.54,11.54,0,0,1,3.72-9c9.11-8.92,18-18,27.08-27,5-5,7.45-4.94,12.59,0,3.95,3.81,7.6,7.94,11.93,11.36,10.52,8.3,23.26,7.44,32.28-2.28,8.15-8.77,7.85-22.36-.78-31.63-3.32-3.57-6.87-6.91-10.3-10.37a19.46,19.46,0,0,1-2.51-2.78,6,6,0,0,1,.05-7c1.37-2.2,3.51-2.63,5.9-2.32s3.83,1.67,5.45,3.08a23,23,0,0,0,31.59-.91,23.25,23.25,0,0,0,1.28-31.38c-.56-.67-1.2-1.28-1.75-2-2.7-3.31-2.81-6.26,0-9.42,3.41-3.81,7.07-7.41,10.85-10.87,2.66-2.44,5.13-2.58,7.59.12,7.31,8,15.5,15.25,22.18,23.84,2.94,3.78,3.92,8.26,3.9,13-.05,18.24,0,36.48,0,54.72a28.28,28.28,0,0,0,.12,4.12c.37,2.64,1.68,4.59,4.55,4.53s4.09-2,4.42-4.68a27,27,0,0,0,.1-3.37c0-18.36-.06-36.73,0-55.09.05-9-2.8-16.77-9.1-23.06-6.64-6.63-12.95-13.54-19.37-20.36-3.8-4-8.2-5.67-13.46-4.79-3.4.56-5.67-.66-7.94-3-12.4-12.51-25-24.88-37.31-37.43a34.54,34.54,0,0,0-18.11-9.91c-1.2-.24-2.94.13-3.16-1.88,1.24,1.43,3,.62,4.48,1a33.32,33.32,0,0,1,16.45,9.12Q291.19,30,311.07,49.87c1.4,1.4,2.49,2.07,4.79,1.38a13.15,13.15,0,0,1,14,3.82c7.23,7.6,14.52,15.15,21.7,22.81a29.17,29.17,0,0,1,8.2,20.34c.1,20,0,40,.06,60,0,3.07-1.05,5.41-4.09,6.4-2.58.85-4.64-.15-6.22-2.23-1.14-1.51-1-3.3-1-5.05,0-18.62-.15-37.23.07-55.85a23.65,23.65,0,0,0-7.27-18.12c-6.2-6.16-12.09-12.64-18.13-19-3.17-3.34-3.79-3.33-7.17,0q-4.51,4.48-9,9c-4.08,4.1-4.12,6.14-.23,10.39A24.15,24.15,0,0,1,294.61,124a23.17,23.17,0,0,1-21-5c-.57-.48-1.09-1-1.65-1.53-2.94-2.66-6.08-2.87-8.25-.54s-1.81,5.23.84,7.93c3.85,3.93,7.85,7.71,11.61,11.71,6.51,6.91,8.75,15,5.84,24.17s-9.23,14.72-18.53,16.61A22.48,22.48,0,0,1,243,171.61c-4.24-3.87-8.2-8.06-12.3-12.09-3.66-3.59-6-3.66-9.54-.15-9.92,9.87-19.78,19.79-29.73,29.64a5.43,5.43,0,0,0-1.7,4.26c.06,20.37,0,40.73.06,61.1,0,7.54,4.92,13.31,11.76,14.19a13.27,13.27,0,0,0,14.76-9.86,19.9,19.9,0,0,0,.44-4.82c0-11.25-.1-22.5.06-33.74a20.24,20.24,0,0,1,16.67-19.8c9-1.64,18.19,3.61,21.72,12.29a21.1,21.1,0,0,1,1.38,8.05q0,37.29,0,74.59c0,9.31-2.52,17.91-6.53,26.23-5.24,10.91-2.16,22.46,7.4,28.7a21.69,21.69,0,0,0,26.1-1.53c7.35-6.16,10.48-16.55,6.09-25-6.63-12.79-8.07-26.2-7.81-40.25.35-19,0-38,.13-57a23.47,23.47,0,0,1,22.11-23.12c11.87-.79,22.82,7.72,24.4,19.67,1.85,14-.25,27.39-8,39.52-4.31,6.79-5.44,13.88-2.26,21.37a22,22,0,0,0,29.42,11.4c11.36-5.26,16.59-19.19,10.16-30-7.26-12.21-9.71-25.11-9.31-39,.38-13,.08-26,.09-39,0-4.41,2-7,5.44-7.09s5.79,2.61,5.79,7.18c0,14.62.15,29.24,0,43.86a50.22,50.22,0,0,0,7.32,27.38c7.39,12.22,5.79,27.44-3.48,38.37A33.44,33.44,0,0,1,326.82,306.42Z"/><path class="cls-2" d="M383.86,355.34c-2.1-.3-1.72-2.18-2-3.45-1.88-7.94-4.47-15.57-9.11-22.38-6.52-9.57-15.11-10.13-22.3-1-6,7.6-9,16.63-10.43,26.12-2.12,13.88,2.79,22,16.16,27.13,1,.37,2.34.44,2.21,2-.12-.59-.57-.66-1.07-.79-13.82-3.65-20.29-12.95-18.46-27.1,1.29-10,4.45-19.4,10.37-27.65,5-6.91,10.93-8.87,17-6,3.53,1.65,5.94,4.48,8,7.66,4.68,7.34,7.33,15.45,8.94,23.94C383.23,354.42,383.05,355.11,383.86,355.34Z"/><path class="cls-1" d="M245.91,0c.06,1.71-1.39,1.5-2.35,1.74A35,35,0,0,0,233.19,6c-2.35,1.48-4.29,1.25-6.56-.18a22.68,22.68,0,0,0-20.4-2.53,23.18,23.18,0,0,0-12.58,33.19c.94,1.65,3,3.21,1.81,5.35a17.22,17.22,0,0,1-6.3,6.27c-1.62.95-2.83-.36-3.91-1.4-3-2.85-5.78-5.87-8.78-8.7-9.19-8.7-21.34-9.32-31.41-1.67-9,6.81-11.26,21.07-5,30.4,3.17,4.72,7.38,8.46,11.3,12.48,3.28,3.37,3.27,3.9,0,7.29-.61.63-1.28,1.2-1.85,1.86-2,2.33-4,2.23-6.55.64a22.38,22.38,0,0,0-22.52-1.19,22.69,22.69,0,0,0-9.76,32.43c2,3.23,2,5.53,0,8.79-7,11.33-4.65,25.92,5.53,36.43,5.22,5.39,10.61,10.6,15.88,15.93,3.38,3.42,3.37,4.17-.07,7.64q-10.58,10.64-21.2,21.21a13,13,0,0,0-3.21,4.11,4.25,4.25,0,0,0,1.42,5.35,4,4,0,0,0,5.18,0,31.78,31.78,0,0,0,3.29-3.06c7.16-7.15,14.29-14.34,21.48-21.45,3-3,3.9-3,6.82-.11q8.43,8.28,16.7,16.7c2.88,2.92,2.85,3.78-.11,6.8-3.84,3.93-7.76,7.79-11.65,11.68q-55.53,55.52-111,111.07c-3.83,3.83-8.11,6.05-13.62,5.92a16.22,16.22,0,0,1-14.4-22.5,27.82,27.82,0,0,1,6.11-8.44q37.8-37.74,75.55-75.53a25,25,0,0,0,2.83-3A4.28,4.28,0,0,0,96,232c-1.67-1.88-3.66-2-5.76-.77a15.35,15.35,0,0,0-3.1,2.7L9.73,311.31a30.65,30.65,0,0,0-7.57,11.48c-.37,1-.35,2.64-2.16,2.56,3.3-10.47,11.6-17.07,18.92-24.4q34-34.09,68.1-68.11a26.58,26.58,0,0,1,2.17-2.08c2.54-2,5.73-1.91,7.72.38s2.09,5,.13,7.48a29.93,29.93,0,0,1-2.6,2.69Q55.76,280,17,318.67c-4.8,4.79-7.1,10.2-5.06,16.92a15.53,15.53,0,0,0,24.58,7.52A41.13,41.13,0,0,0,39.81,340q61-60.94,122-121.82c2.66-2.65,2.42-3.9-.12-6.27-5.84-5.46-11.45-11.17-17-17-1.68-1.75-2.51-1.49-4,.08Q128.44,207.5,116,219.71c-2.79,2.74-5.91,2.79-8.29.44s-2.22-5.52.34-8.33c.59-.65,1.23-1.25,1.85-1.86,7.51-7.51,15-15.07,22.58-22.47,1.82-1.77,2-2.79.07-4.65-5.7-5.43-11.21-11.06-16.75-16.65-11.42-11.54-13.15-26.12-4.63-39.89.9-1.45.78-2.21-.11-3.54-7-10.48-6-22.75,2.26-31.17s20.87-9.65,31.14-2.83c1.54,1,2.29,1.07,3.65-.26,5.85-5.69,5.9-5.63.15-11.39-4.67-4.66-9.75-9-11.74-15.69a24.48,24.48,0,0,1,10.12-27.51,24,24,0,0,1,29.43,2.58c3.59,3.29,7,6.79,10.36,10.3,1.19,1.23,2.11,1.64,3.25.09a7.45,7.45,0,0,1,.79-.8c1.55-1.61,3.83-3,4.46-4.91s-1.84-3.43-2.74-5.26a24.23,24.23,0,0,1,5.59-28.74,23.72,23.72,0,0,1,29.08-2.33c2.55,1.73,4.1,1.67,6.37-.06C237,2,241.74,1.74,245.91,0Z"/><path class="cls-1" d="M367.1,258.58a50.22,50.22,0,0,1-7.32-27.38c.19-14.62.06-29.24,0-43.86,0-4.57-2.23-7.27-5.79-7.18s-5.43,2.68-5.44,7.09c0,13,.29,26-.09,39-.4,13.92,2.05,26.82,9.31,39,6.43,10.8,1.2,24.73-10.16,30a22,22,0,0,1-29.42-11.4c-3.18-7.49-2.05-14.58,2.26-21.37,7.71-12.13,9.81-25.54,8-39.52-1.58-12-12.53-20.46-24.4-19.67a23.47,23.47,0,0,0-22.11,23.12c-.14,19,.22,38-.13,57-.26,14.05,1.18,27.46,7.81,40.25,4.39,8.49,1.26,18.88-6.09,25a21.69,21.69,0,0,1-26.1,1.53c-9.56-6.24-12.64-17.79-7.4-28.7,4-8.32,6.55-16.92,6.53-26.23q-.07-37.29,0-74.59a21.1,21.1,0,0,0-1.38-8.05c-3.53-8.68-12.76-13.93-21.72-12.29a20.24,20.24,0,0,0-16.67,19.8c-.16,11.24,0,22.49-.06,33.74a19.9,19.9,0,0,1-.44,4.82,13.27,13.27,0,0,1-14.76,9.86c-6.84-.88-11.74-6.65-11.76-14.19-.06-20.37,0-40.73-.06-61.1a5.43,5.43,0,0,1,1.7-4.26c9.95-9.85,19.81-19.77,29.73-29.64,3.52-3.51,5.88-3.44,9.54.15,4.1,4,8.06,8.22,12.3,12.09a22.48,22.48,0,0,0,20.48,5.66c9.3-1.89,15.63-7.54,18.53-16.61s.67-17.26-5.84-24.17c-3.76-4-7.76-7.78-11.61-11.71-2.65-2.7-2.92-5.7-.84-7.93s5.31-2.12,8.25.54c.56.5,1.08,1,1.65,1.53a23.17,23.17,0,0,0,21,5,24.15,24.15,0,0,0,12.23-40.15c-3.89-4.25-3.85-6.29.23-10.39q4.5-4.52,9-9c3.38-3.37,4-3.38,7.17,0,6,6.32,11.93,12.8,18.13,19a23.65,23.65,0,0,1,7.27,18.12c-.22,18.62-.07,37.23-.07,55.85,0,1.75-.19,3.54,1,5.05,1.58,2.08,3.64,3.08,6.22,2.23,3-1,4.09-3.33,4.09-6.4,0-20,0-40-.06-60a29.17,29.17,0,0,0-8.2-20.34c-7.18-7.66-14.47-15.21-21.7-22.81a13.15,13.15,0,0,0-14-3.82c-2.3.69-3.39,0-4.79-1.38Q291.22,30,271.34,10.09A33.32,33.32,0,0,0,254.89,1c-1.49-.35-3.24.46-4.48-1h-4.5c-4.17,1.74-9,2-12.67,4.78-2.27,1.73-3.82,1.79-6.37.06a23.72,23.72,0,0,0-29.08,2.33,24.23,24.23,0,0,0-5.59,28.74c.9,1.83,3.33,3.49,2.74,5.26s-2.91,3.3-4.46,4.91a7.45,7.45,0,0,0-.79.8c-1.14,1.55-2.06,1.14-3.25-.09-3.38-3.51-6.77-7-10.36-10.3a24,24,0,0,0-29.43-2.58,24.48,24.48,0,0,0-10.12,27.51c2,6.68,7.07,11,11.74,15.69,5.75,5.76,5.7,5.7-.15,11.39-1.36,1.33-2.11,1.29-3.65.26-10.27-6.82-22.82-5.61-31.14,2.83s-9.24,20.69-2.26,31.17c.89,1.33,1,2.09.11,3.54-8.52,13.77-6.79,28.35,4.63,39.89,5.54,5.59,11,11.22,16.75,16.65,1.95,1.86,1.75,2.88-.07,4.65-7.61,7.4-15.07,15-22.58,22.47-.62.61-1.26,1.21-1.85,1.86-2.56,2.81-2.69,6-.34,8.33s5.5,2.3,8.29-.44q12.4-12.24,24.64-24.65c1.54-1.57,2.37-1.83,4-.08,5.52,5.78,11.13,11.49,17,17,2.54,2.37,2.78,3.62.12,6.27Q100.7,279,39.81,340a41.13,41.13,0,0,1-3.25,3.09A15.53,15.53,0,0,1,12,335.59c-2-6.72.26-12.13,5.06-16.92Q55.8,280,94.44,241.31a29.93,29.93,0,0,0,2.6-2.69c2-2.5,1.95-5.08-.13-7.48s-5.18-2.4-7.72-.38A26.58,26.58,0,0,0,87,232.84Q53,266.88,18.92,301C11.6,308.28,3.3,314.88,0,325.35v11.24c1.29.71,1.08,2.13,1.48,3.23a27,27,0,0,0,9.14,12.51c11.15,8.44,25.68,7.08,36.27-3.5q61.4-61.32,122.73-122.7c.71-.71,1.41-1.42,2.13-2.11.44-.43,1-1,1.55-.29,2.09,2.57,5.53,4,5.3,8.4-.4,7.48-.18,15-.09,22.48.17,14.34,11.26,25.5,25.06,25.34s24.28-11,24.4-25.43c0-4.74,0-9.49,0-14.74v-.16l.14.08c4.71,2.77,9.25,4.33,14.17,3.89,2.51-.22,3.09.53,3.07,3-.12,13.62-.33,27.25,0,40.86A69.59,69.59,0,0,1,239,318.92c-5.9,12.91-3.38,25.36,6.38,35.64s21.85,13.17,35.3,8.44a33,33,0,0,0,18.48-45.73c-3.3-6.82-6-13.77-6-21.41q-.15-34.49,0-69a12.26,12.26,0,0,1,24.51-.57c.6,11-.92,21.65-7.25,31.14a31.38,31.38,0,0,0-5.22,16.93A33.23,33.23,0,0,0,363.62,297C372.89,286,374.49,270.8,367.1,258.58ZM182.33,178.72Q152.09,148.29,121.72,118a12.79,12.79,0,0,1-4.07-9.73c.22-5.17,2.59-9.11,7.23-11.35a12.46,12.46,0,0,1,13.43,1.22,21.35,21.35,0,0,1,2.5,2.26q29.67,29.66,59.39,59.27c2,2,2,2.94,0,4.84-4.84,4.51-9.46,9.25-14.06,14C184.77,179.93,184,180.36,182.33,178.72Zm-3.84,33.42c-1.24.05-1.55-.76-2-1.25q-26.52-26.44-53-53c-7.28-7.3-8.38-16.08-2.76-25.84,1.58,1.91,2.75,3.55,4.15,5q25.65,25.72,51.39,51.35a6.89,6.89,0,0,1,2.27,5.53C178.39,200,178.49,206.06,178.49,212.14Zm-27.87-167c5.23-5.14,13-5.18,18.45.23C181.78,57.88,194.35,70.56,207,83.18q30.2,30.21,60.38,60.41c7.71,7.75,5.11,19.39-4.9,22.38a19.89,19.89,0,0,1-2.89.51,12.93,12.93,0,0,1-9.84-3.85q-49.53-49.53-99-99.09A12.78,12.78,0,0,1,150.62,45.1ZM238,67.53q-16.41-16.44-32.85-32.87c-3.74-3.75-5.15-8.19-3.51-13.34a12.43,12.43,0,0,1,10.49-9,12.13,12.13,0,0,1,11,3.6q37.8,37.72,75.51,75.54a12.58,12.58,0,0,1-.33,18.15,12.71,12.71,0,0,1-18.16-.06c-7.16-7-14.2-14.07-21.21-21.19-1.94-2-4.08-2.92-6.73-2.11-3.91,1.21-4.91,6.17-1.81,9.45s6.36,6.35,9.79,9.74c-2.37,1.63-4.53,2.88-5.66,5-1.51,2.81-2.57,1.81-4.23.14q-25.91-26-52-51.92c-1.85-1.83-1.89-2.79,0-4.61,5.26-5.06,5.17-5.15,10.4.07q10.73,10.74,21.47,21.46c3.36,3.35,6.56,3.7,9.11,1.08S241.28,70.84,238,67.53Zm-25.54,84.69c-1.56,2-2.54,1.41-4.06-.12q-25.87-26-51.91-51.9c-1.69-1.67-1.84-2.55,0-4.28,5.41-5.23,5.33-5.32,10.6,0l51.41,51.4A21.68,21.68,0,0,0,212.44,152.22ZM262.32,17.09c13.81,13.55,27.4,27.32,41.14,40.94,1.32,1.31,1.17,2-.06,3.24-3.18,3.12-6.59,6.06-9.11,10C276,53,257.83,34.77,239.62,16.62c-1.45-1.44-1.15-2,.47-2.89C246.79,10.12,256.42,11.3,262.32,17.09Zm-34.07,201.3a8.75,8.75,0,0,1,9.25-7c4.37.37,7.55,3.82,7.77,8.5.07,1.61,0,3.23,0,4.85h0v2.61c0,5-.82,5.73-5.84,4.91C232.57,231.17,226.85,224.07,228.25,218.39Z"/><path class="cls-1" d="M383.12,353.84c-1.61-8.49-4.26-16.6-8.94-23.94-2-3.18-4.44-6-8-7.66-6.07-2.83-12-.87-17,6-5.92,8.25-9.08,17.68-10.37,27.65-1.83,14.15,4.64,23.45,18.46,27.1.5.13.95.2,1.07.79h3.75c3.19-.76,6.57-.41,9.64-2.06a22.56,22.56,0,0,0,12.1-15.93V355.34C383.05,355.11,383.23,354.42,383.12,353.84ZM361,372c-6.27-.07-11.71-5.18-11.3-11.49A50.22,50.22,0,0,1,358.23,335c2.32-3.38,3.38-3.38,5.71-.06,5.37,7.63,7.56,16.39,8.67,24.5C372.58,367,367.44,372.1,361,372Z"/><path class="cls-3" d="M362.12,383.82c1.08-1.42,2.73-.61,4.09-1,7.72-2.13,13.15-6.76,16.18-14.21.39-1,.22-2.27,1.47-2.8,0,5.37-.08,10.75.05,16.12,0,1.61-.31,1.95-1.93,1.92C375.36,383.75,368.74,383.82,362.12,383.82Z"/></g></g></svg>