<svg xmlns="http://www.w3.org/2000/svg" viewBox="0 0 382.96 408.73"><defs><style>.cls-1{fill:#fefefe;}.cls-2{fill:#03045e;}</style></defs><title>Recurso 4</title><g id="Capa_2" data-name="Capa 2"><g id="Capa_1-2" data-name="Capa 1"><path class="cls-1" d="M48.87,254.78C21.69,252.8,0,228.83,0,201.13s21.59-51.39,48.56-53.55c4.63-.37,9.3-.33,13.95-.44,8.39-.2,13-4.26,14.15-12.54.61-4.32,3.12-6.82,6.56-6.52s5.52,3,5.35,7.47C88.13,147.53,78,158,66,158.89c-6.47.46-13,.39-19,3.63-12,6.48-18.24,19.94-15,32.57s14.2,21.26,28.06,20.81c24.18-.8,48.35-2.15,72.53-3.27a8.91,8.91,0,0,0,1.17-.2,3.9,3.9,0,0,1-2.33,1.26,10.89,10.89,0,0,1-3.14.49c-8.12-.35-16.19.69-24.29.94-13.94.43-27.89,1-41.79,1.9-16.41,1.1-30-9.37-31.91-26.2-1.64-14.22,8.47-29.22,24.49-32.06a58,58,0,0,1,9.51-1,23.71,23.71,0,0,0,22.89-20.09c0-.26.07-.52.1-.79.42-4.24-.94-6.87-3.78-7.3s-5,1.7-5.88,5.73C75.78,144.12,71.06,148,62.06,148c-13.39-.08-26.19,1.81-37.68,9.48-27.17,18.12-31.09,57.09-8.24,80.37,11.27,11.49,25,16.15,40.62,16.48,11.3.23,22.61.05,33.92,0a14.57,14.57,0,0,0,6.62-1.15,4.35,4.35,0,0,0,2.65-4.87,4.09,4.09,0,0,0-3.77-3.55,26.71,26.71,0,0,0-4.38-.18c-11.58,0-23.15.17-34.72-.06-8.56-.17-16.77-1.7-24.45-6.14-20-11.55-27.58-36.73-16.72-57.09,1-1.95,2.13-5.24,4.28-4.63a2.56,2.56,0,0,1,.47.18c-3.75,3.46-6.95,11.28-8.07,17.62-4.39,24.75,15.58,49.18,42.88,48.8,12.76-.18,25.53,0,38.3,0,2.6,0,5.06.22,6.68,2.66a5.89,5.89,0,0,1-2.6,8.67,9.55,9.55,0,0,1-3.51.62C79.18,255,64,255.88,48.87,254.78Z"/><path class="cls-1" d="M116.77,248.45C116.29,251,118,253,121.34,254c.38.12.78.16,1.16.28,1,.31,2.33.24,2.68,1.33-1.52-.76-2.89-.28-4.17-.48-3.49-.55-5.59-2.46-5.76-6-.17-3.29,2.41-5.7,6.22-5.83,4.26-.15,8.52-.18,12.77,0a4.26,4.26,0,0,0,4.46-2.42,74.4,74.4,0,0,0,6-13.41c.88-2.68.54-3.4-2.41-3.25-15.41.81-30.81,1.57-46.23,2.09-14.08.48-28.15,2.36-42.23,1.21C33.27,225.83,17,205.39,19.47,185A38.87,38.87,0,0,1,21,177c1.59,1.12.23,3.82-.05,5.63a38.19,38.19,0,0,0,32.45,43.71c7.58,1.09,15.16.26,22.64-.23,7.69-.51,15.4-.55,23.08-1.05,8.33-.55,16.7-1.2,25.08-1.08,5.58.08,11.1-1.16,16.71-.82,4.92.31,5.73,1.25,4.35,5.85A56.23,56.23,0,0,1,140.44,240c-1.81,3.29-4.24,4.84-8,4.63-3.31-.18-6.65,0-10,0C119.68,244.62,117.35,245.32,116.77,248.45Z"/><path class="cls-1" d="M147.93,296.4q0,30.74,0,61.46c0,12.84-9.16,22.83-22.21,23.75-9.91.69-22.57-6.11-24.72-19.89a66,66,0,0,1-.78-9.93c0-15.82-11-28.28-26.66-30.35a14.69,14.69,0,0,0-2-.15c-3.61,0-5.91,1.68-6.08,4.42-.16,2.5,1.74,4.61,5.12,5.1,4.85.69,9.23,2.18,13,5.51a19.24,19.24,0,0,1,6.88,15.49c-.13,6.26-.14,12.54,1.3,18.66q6.45,27.43,33.52,35.56c1.73.52,4.16.1,4.78,2.7-4.08-1.37-8.35-2.33-12.2-4.18-18.36-8.83-27.68-23.66-28.36-44-.11-3.46,0-6.92-.14-10.37a19.36,19.36,0,0,0-17.14-18.07c-.92-.09-1.87-.08-2.77-.26-3.44-.69-5.68-3.33-5.43-6.33.27-3.33,2.86-5.47,6.64-5.47,15.49,0,29.36,12.93,30.63,28.52.34,4.24,0,8.49.65,12.74a22.79,22.79,0,0,0,23.34,19.15A22.53,22.53,0,0,0,146.9,359.9c.12-1.59.19-3.19.19-4.78,0-21.41,0-42.82,0-64.11-1.3-.88-1.92.2-2.58.64-15.18,10.05-32,14.61-50.06,14.77-6.65.05-13.31-.13-19.94.18a25.45,25.45,0,0,0-23.67,21.55c-.85,5.61-.7,11.39-3.8,16.53-4.76,7.91-11.74,12.06-20.81,12.8-3.81.31-6.75-2.14-7-5.56-.24-3.22,2.1-5.73,5.86-6.29,9.26-1.4,13.23-5.92,13.22-15.24s-.24-18.84,3.07-27.95A50.42,50.42,0,0,1,87.07,269c12.49-.39,24.19-3.07,34.61-10.26,1.18-.81,2.3-1.71,3.59-2.68v0c.1,1.3-1,2.09-2,2.8a56.45,56.45,0,0,1-15.54,8,67.13,67.13,0,0,1-20,3.23c-23.68.45-44.36,18.77-47.61,42.09-.89,6.38-.58,12.74-.7,19.11-.15,8.23-4.4,13.48-12.44,15.24l-.78.15c-4.15.87-5.94,2.65-5.51,5.46.46,3,3.14,4.47,7.15,3.93C40,354.44,48.41,345.38,49.18,333c.85-13.87,7.62-22.76,20.2-26.64a26.62,26.62,0,0,1,7.89-.89c10.76,0,21.54.38,32.23-1.38a88.65,88.65,0,0,0,32-11.81,19.57,19.57,0,0,1,3.13-1.75c1.56-.59,2.58-.09,3,1.53A16.88,16.88,0,0,1,147.93,296.4Z"/><path class="cls-1" d="M189.54,1.27a70.68,70.68,0,0,0-48.62,20.1C128.31,33.4,120.46,47.79,118,65c-1.41,9.94-.38,19.9.65,29.83,1.85,17.84,3.57,35.7,5.36,53.55,1.65,16.39,3.26,32.79,5,49.18.44,4.27,1.43,8.38,4.17,11.89.84,1.08,1.07,1.95.8,2.63-8.46-9.37-6.49-21.22-7.74-32.14-3.24-28.26-5.77-56.6-8.67-84.89-1.43-13.93-2.27-27.7,1.78-41.49C129.82,17.91,167.42-5.56,204,1.14c33.58,6.16,57.92,31.49,62.41,65.18,1.3,9.7,0,19.38-1,29q-3.44,34.13-6.86,68.25c-1.21,12-2.51,24.06-3.66,36.1-.45,4.61-2.43,8.38-5.93,12.17a1.94,1.94,0,0,1,.53-1.67c4.93-6.33,4.69-14,5.44-21.33,2.41-23.53,4.82-47.06,7.07-70.61,1.29-13.49,3.17-26.93,3.55-40.5.59-20.75-6.27-38.49-20.6-53.54C229.81,8.31,211.14.78,189.54,1.27Z"/><path class="cls-1" d="M363.23,349.19c1.92,4.29-1.35,8.53-6.4,8.31a25.26,25.26,0,0,1-24-23.79c-1-14.44-7.83-23.41-20.33-26.61-3.93-1-7.93-.69-11.91-.66-13,.1-26.05.05-38.71-3.85a95.84,95.84,0,0,1-25.15-12.08c-1.09.74-.74,1.61-.74,2.33,0,21.16-.09,42.31,0,63.46.06,14.41,10,24.55,23.35,24.2,12.74-.33,22.18-10.5,22.19-24.3,0-7.42.59-14.6,4.72-21,6.11-9.53,14.81-14.59,26.11-15.05,3.76-.16,6.39,2.11,6.67,5.42.26,3-2,5.67-5.41,6.34-1.56.3-3.2.22-4.74.58A19.28,19.28,0,0,0,293.63,351c-.24,7.43.21,14.9-1.7,22.2a47.28,47.28,0,0,1-39.71,34.88c-.3.05-.56.43-.84.66.11-2,1.78-1.74,3-1.94,20.78-3.67,38.36-21.93,38.25-48.27,0-2.13,0-4.26,0-6.39.11-11.12,7.07-19.25,18-21,.26-.05.52-.06.79-.1,4.27-.68,6.43-2.55,6.21-5.38-.23-3.05-3-4.65-7.34-4.29-15,1.24-27.22,14.28-27.38,29.32a75.55,75.55,0,0,1-.79,11.13c-2.17,13.38-14.21,20.33-24.38,19.84-13.05-.63-22.52-10.89-22.55-23.84q-.06-30.74,0-61.46c0-.53,0-1.07,0-1.6.19-4.85,1.4-5.6,5.46-3.05,15.58,9.78,32.7,13.75,50.9,13.76,4.39,0,8.8.29,13.16-.05,14.26-1.08,28.7,10,29.29,27.68.42,12.45,9.5,21.76,21.79,23.1a7.21,7.21,0,0,0,3.54-.29,4.52,4.52,0,0,0,3.11-4.22,4.25,4.25,0,0,0-2.6-4.13,17.29,17.29,0,0,0-4.24-1.09c-7.56-1.84-11.72-7.09-11.89-14.9-.14-6.37.18-12.73-.67-19.11-3.09-23.29-23.91-41.91-47.4-42.32-12.19-.22-23.71-3-34-10a21.35,21.35,0,0,1-2.27-1.63c-.8-.7-1.8-1.45-1.53-2.61a1.37,1.37,0,0,1,.07-.24c.86,1.57,2.28,2.22,3.46,3,10.29,7.09,21.85,9.81,34.2,10.27,18.75.68,32.79,9.59,42.4,25.52,4.63,7.66,6.57,16.18,6.74,25.09.07,3.86,0,7.72,0,11.58.08,8.44,4.35,13.3,12.8,14.38C360.08,345.88,362.13,346.72,363.23,349.19Z"/><path class="cls-1" d="M380.62,217.14c-6.26,20.64-25.4,36-46.76,37.72-6.51.52-13,.34-19.54.35-18.6,0-37.2,0-56.19,0,.58-.75,1.72-.67,2.63-.78a35.66,35.66,0,0,1,4.39-.09c20.08,0,40.17.1,60.25,0,12.34-.09,24.05-2.72,34.25-10.14,28.08-20.42,28.41-58.13,7.53-79.4C355.8,153.19,342,148.49,326.26,148c-2.13-.07-4.26,0-6.39,0-7.62-.11-12.71-4.31-14.33-11.84a14.9,14.9,0,0,0-.74-3.1c-1-2.24-2.61-3.81-5.22-3.47s-3.79,2.36-3.87,4.83a21.65,21.65,0,0,0,7.46,17,23.19,23.19,0,0,0,15.89,6.42c8.95.11,17.5,1.82,24.18,8.55,9,9,12.14,19.6,7.75,31.74-4.1,11.35-12.57,17.47-24.57,18.58-6.5.6-13,.09-19.5-.24Q291,215.66,275.09,215c-6.77-.27-13.52-.87-20.31-.8a12.18,12.18,0,0,1-3.9-.73,3.52,3.52,0,0,1-1.56-.92c2.49.18,4.53.36,6.58.46q32.86,1.49,65.76,2.93c16.4.74,28.94-10.18,30.15-26.27,1.12-14.9-10.8-28.45-26.32-30.18-5-.56-10.05-.13-14.93-2-9.26-3.59-16.05-12.87-16.12-22.61,0-3.88,1.95-6.39,5.29-6.75s5.81,1.91,6.54,5.63c2.1,10.59,5.57,13.6,16.58,13.35,14.51-.33,27.89,2.57,39.61,11.72A54.31,54.31,0,0,1,380.62,217.14Z"/><path class="cls-2" d="M362.46,158.8c-11.72-9.15-25.1-12.05-39.61-11.72-11,.25-14.48-2.76-16.58-13.35-.73-3.72-3.34-6-6.54-5.63s-5.32,2.87-5.29,6.75c.07,9.74,6.86,19,16.12,22.61,4.88,1.89,9.95,1.46,14.93,2,15.52,1.73,27.44,15.28,26.32,30.18-1.21,16.09-13.75,27-30.15,26.27q-32.88-1.47-65.76-2.93c-2.05-.1-4.09-.28-6.58-.46l-.92-.07c.19-.2.38-.39.56-.59h0c3.5-3.79,5.48-7.56,5.93-12.17,1.15-12,2.45-24.07,3.66-36.1q3.45-34.12,6.86-68.25c1-9.65,2.28-19.33,1-29C261.9,32.63,237.56,7.3,204,1.14c-36.56-6.7-74.16,16.77-84.63,52.43-4,13.79-3.21,27.56-1.78,41.49,2.9,28.29,5.43,56.63,8.67,84.89,1.25,10.92-.72,22.77,7.74,32.14.07.09.15.17.23.26l-.41.08a8.91,8.91,0,0,1-1.17.2c-24.18,1.12-48.35,2.47-72.53,3.27-13.86.45-24.79-8.09-28.06-20.81s3-26.09,15-32.57c6-3.24,12.5-3.17,19-3.63,12-.85,22.13-11.36,22.57-23.34.17-4.44-1.77-7.15-5.35-7.47s-6,2.2-6.56,6.52c-1.16,8.28-5.76,12.34-14.15,12.54-4.65.11-9.32.07-13.95.44-27,2.16-48.53,26-48.56,53.55s21.69,51.67,48.87,53.65c15.14,1.1,30.31.24,45.47.41a9.55,9.55,0,0,0,3.51-.62,5.89,5.89,0,0,0,2.6-8.67c-1.62-2.44-4.08-2.66-6.68-2.66-12.77,0-25.54-.14-38.3,0-27.3.38-47.27-24.05-42.88-48.8,1.12-6.34,4.32-14.16,8.07-17.62a6.28,6.28,0,0,1,.49-.43c-.07.2-.14.41-.2.61a38.87,38.87,0,0,0-1.48,8c-2.46,20.37,13.8,40.81,34.31,42.5,14.08,1.15,28.15-.73,42.23-1.21,15.42-.52,30.82-1.28,46.23-2.09,2.95-.15,3.29.57,2.41,3.25a74.4,74.4,0,0,1-6,13.41,4.26,4.26,0,0,1-4.46,2.42c-4.25-.17-8.51-.14-12.77,0-3.81.13-6.39,2.54-6.22,5.83.17,3.55,2.27,5.46,5.76,6,1.28.2,2.65-.28,4.17.48a3.24,3.24,0,0,1,.36.2l-.27.21c-1.29,1-2.41,1.87-3.59,2.68-10.42,7.19-22.12,9.87-34.61,10.26A50.42,50.42,0,0,0,41.4,302.44c-3.31,9.11-3.08,18.52-3.07,27.95s-4,13.84-13.22,15.24c-3.76.56-6.1,3.07-5.86,6.29.24,3.42,3.18,5.87,7,5.56,9.07-.74,16.05-4.89,20.81-12.8,3.1-5.14,3-10.92,3.8-16.53A25.45,25.45,0,0,1,74.52,306.6c6.63-.31,13.29-.13,19.94-.18,18.09-.16,34.88-4.72,50.06-14.77.66-.44,1.28-1.52,2.58-.64,0,21.29,0,42.7,0,64.11,0,1.59-.07,3.19-.19,4.78a22.53,22.53,0,0,1-21.61,20.59A22.79,22.79,0,0,1,102,361.34c-.65-4.25-.31-8.5-.65-12.74C100,333,86.16,320.07,70.67,320.08c-3.78,0-6.37,2.14-6.64,5.47-.25,3,2,5.64,5.43,6.33.9.18,1.85.17,2.77.26a19.36,19.36,0,0,1,17.14,18.07c.18,3.45,0,6.91.14,10.37.68,20.31,10,35.14,28.36,44,3.85,1.85,8.12,2.81,12.2,4.18h12.77c3.73-.84,7.61-.56,11.3-1.86,18.05-6.38,31.34-24.95,31.35-44.06q0-37.71,0-75.43a20.85,20.85,0,0,1,.87-7.49c.86-2.29,2.34-3.88,4.95-4,2.79-.08,4.43,1.5,5.36,4a20.85,20.85,0,0,1,.87,7.49q0,38.12,0,76.22a39.52,39.52,0,0,0,4,17.35c7.51,15.69,19.36,25.67,37.07,27.78h12.77c.28-.23.54-.61.84-.66a47.28,47.28,0,0,0,39.71-34.88c1.91-7.3,1.46-14.77,1.7-22.2a19.28,19.28,0,0,1,15.24-18.54c1.54-.36,3.18-.28,4.74-.58,3.45-.67,5.67-3.33,5.41-6.34-.28-3.31-2.91-5.58-6.67-5.42-11.3.46-20,5.52-26.11,15.05-4.13,6.44-4.71,13.62-4.72,21,0,13.8-9.45,24-22.19,24.3C246,380.85,236,370.71,236,356.3c-.1-21.15,0-42.3,0-63.46,0-.72-.35-1.59.74-2.33a95.84,95.84,0,0,0,25.15,12.08c12.66,3.9,25.67,4,38.71,3.85,4,0,8-.34,11.91.66,12.5,3.2,19.35,12.17,20.33,26.61a25.26,25.26,0,0,0,24,23.79c5.05.22,8.32-4,6.4-8.31-1.1-2.47-3.15-3.31-5.72-3.64-8.45-1.08-12.72-5.94-12.8-14.38,0-3.86.05-7.72,0-11.58-.17-8.91-2.11-17.43-6.74-25.09-9.61-15.93-23.65-24.84-42.4-25.52-12.35-.46-23.91-3.18-34.2-10.27-1.18-.82-2.6-1.47-3.46-3-.07-.14-.14-.28-.21-.44h.45c19,0,37.59,0,56.19,0,6.52,0,13,.17,19.54-.35,21.36-1.69,40.5-17.08,46.76-37.72A54.31,54.31,0,0,0,362.46,158.8ZM140,197.89c.07-4.54,3.48-6.82,10.22-6.77a25,25,0,0,1,4,.32c3.67.65,5.62,3,5.58,6.62s-2.09,5.89-5.75,6.49c-1.3.21-2.63.25-2.83.27C143.35,204.83,139.91,202.46,140,197.89Zm7.1,52.2c0,8.44,0,15.82,0,23.21,0,1.64-1.19,2.25-2.18,3.08-14.77,12.34-31.9,17.9-51,18.1-8.47.1-17-.79-25.41.83a41.22,41.22,0,0,0-12.18,4.78c2.36-6.39,10.66-13.52,19-16.74,5.31-2.05,10.83-2.47,16.39-2.75C114.6,279.44,132.66,269.31,147.09,250.09Zm143,30.37c9.11.67,18,1.6,25.69,7.11a41.29,41.29,0,0,1,12.05,13.3c-12.6-8.47-25.82-6.23-38.65-6.39-18.84-.22-35.76-5.64-50.5-17.59-1.93-1.56-3-3.1-2.75-5.67a12.6,12.6,0,0,0-.48-4.72,5.26,5.26,0,0,0-5.73-3.95,5.34,5.34,0,0,0-5.41,4.39,16.86,16.86,0,0,0-.29,4c0,28.33-.06,56.67,0,85,0,16.84,8.17,28.87,23.16,34.54,4.38,1.66,9,2.18,14.82,2.24-6.48,3.31-12.28,4.53-18.42,3.89-20.2-2.12-33.11-16.57-33.19-37.35-.11-25.27,0-50.54,0-75.82,0-10.68-4.91-17.71-13.89-20.28a18.54,18.54,0,0,0-23.35,15.52,65.75,65.75,0,0,0-.35,7.56q0,36.32,0,72.63c0,15.47-6.29,27.3-20.28,34.25a32.42,32.42,0,0,1-30.24-.09c12.54-.44,23-4.84,30.52-15.29,4.85-6.76,6.38-14.4,6.37-22.57,0-44.82,0-89.65-.1-134.48,0-3.24.66-5.12,3.75-6.76,7-3.72,10.3-11.86,8.77-19.77a18.76,18.76,0,0,0-15.94-14.63A37.41,37.41,0,0,0,138.24,181c-2.48-25-5-49.68-7.38-74.41-.93-9.53-2-19-2.6-28.59-2-31.17,22.15-60.75,53.11-65.15,33.77-4.81,63.35,15,71.86,48.1,2.89,11.22,1.32,22.45.21,33.67q-3.39,34.13-6.84,68.24c-.59,5.95-1.19,11.9-1.82,18.11a37.78,37.78,0,0,0-16.86-1.54,18.75,18.75,0,0,0-16.38,14.62,18.56,18.56,0,0,0,9.7,20.44,5.21,5.21,0,0,1,3.27,4.66C229.33,253.66,255.14,277.88,290.05,280.46Zm-60-75.72c-4.31-.46-6.83-3.05-6.77-6.87,0-3.62,2.47-6.2,6.58-6.62a32.5,32.5,0,0,1,6.76,0c4,.46,6.52,3.26,6.46,6.78s-2.62,6.13-6.66,6.64c-1.05.13-2.12.1-3.18.15v-.1A28.28,28.28,0,0,1,230,204.74Zm19,38.55c-2.21,0-3.67-.45-4.8-2.53a82.26,82.26,0,0,1-5.79-13c-.9-2.68-.8-3.66,2.49-3.49,21.36,1.09,42.74,2.12,64.12,2.91,9.38.34,18.81,2,28.18-.25a39.3,39.3,0,0,0,29.27-48.16c-.16-.64-.21-1.3-.41-2.67,9.57,11.13,11.57,29.67,5.06,42.52-8.29,16.39-21.68,24.59-40,24.66C301.15,243.31,275.1,243.22,249.05,243.29Z"/><path class="cls-1" d="M238.61,408.73c-17.71-2.11-29.56-12.09-37.07-27.78a39.52,39.52,0,0,1-4-17.35q0-38.1,0-76.22a20.85,20.85,0,0,0-.87-7.49c-.93-2.46-2.57-4-5.36-4-2.61.08-4.09,1.67-4.95,4a20.85,20.85,0,0,0-.87,7.49q0,37.71,0,75.43c0,19.11-13.3,37.68-31.35,44.06-3.69,1.3-7.57,1-11.3,1.86,4.59-1.44,9.44-2,13.8-4.19q28-14,28-45.36.06-37.31,0-74.61c0-6.92,2.15-10.07,6.84-10.07s6.82,3.17,6.82,10.09c0,25-.09,50,0,75,.12,24.71,14.67,42.76,38.64,48.3C237.64,408,238.38,407.89,238.61,408.73Z"/></g></g></svg>