<svg xmlns="http://www.w3.org/2000/svg" viewBox="0 0 154.02 157.27"><defs><style>.cls-1{fill:#172059;}</style></defs><title>Recurso 6</title><g id="Capa_2" data-name="Capa 2"><g id="Capa_1-2" data-name="Capa 1"><path class="cls-1" d="M86.62.59A79,79,0,0,0,77,0,77.1,77.1,0,0,0,0,77c0,1.95.07,3.91.22,5.86.11,1.47,10.13.77,10-.39C10.11,80.66,10,78.83,10,77A67,67,0,0,1,77,10a68,68,0,0,1,7.95.47C85.83,10.61,87.46.7,86.62.59Z"/><path class="cls-1" d="M144,77c0,2.24-.11,4.49-.33,6.7a67,67,0,0,1-62.81,60.16c-1.27.07-.89,10.11.56,10a77,77,0,0,0,72.24-69.18c.25-2.54.38-5.13.38-7.7C154,73.89,144,74.28,144,77Z"/><path class="cls-1" d="M92.75,94.06c25-26.11,56.8-70.22,41.66-84.75-2.64-2.53-6.26-3.7-10.77-3.52l-1.84.07.44,10,1.83-.08a4.85,4.85,0,0,1,3.39.74c1.48,1.42,2.11,8.17-6.14,23.5-7.69,14.28-20.41,31-35.81,47.05S53.93,116.57,40,124.84c-15,8.89-21.74,8.54-23.23,7.12-.78-.76-1.07-2.72-.75-5.25l.22-1.83-10-1.22L6,125.48c-.73,6,.53,10.61,3.77,13.72a13.66,13.66,0,0,0,9.81,3.53c6.56,0,15.14-3.11,25.49-9.25C59.81,124.75,76.73,110.75,92.75,94.06Z"/><path class="cls-1" d="M35,111c13-7.33,27.94-19.2,42.18-33.44s26.11-29.22,33.44-42.18c10.67-18.87,8.18-27.55,4.22-31.51s-10.41-4.54-19-1.59l-1.74.6,3.25,9.49,1.74-.59c5.6-1.91,8.13-1.37,8.68-.82.86.86,1.61,6.27-5.86,19.48-6.9,12.19-18.19,26.41-31.8,40s-27.83,24.91-40,31.81c-13.21,7.46-18.63,6.71-19.48,5.85s-1-4.57,1.89-11.5l.71-1.7L3.91,91.06l-.71,1.7c-4.34,10.39-4.25,17.95.27,22.47,2.28,2.28,5.4,3.43,9.29,3.43C18.53,118.66,26,116.09,35,111Z"/><path class="cls-1" d="M149.89,29.47a12.89,12.89,0,0,0-8.9-3.26l-.17,10a3.56,3.56,0,0,1,2.24.59c2.24,2.08-.11,11.48-5.48,21.85-7,13.53-18.69,29.42-32.92,44.75-35.31,38-60.11,46.43-63.57,43.23-.56-.52-.85-1.89-.78-3.65l-10-.43c-.21,4.94,1.13,8.79,4,11.44a13,13,0,0,0,9.16,3.25c6.28,0,14.46-3.08,24.32-9.14,13.72-8.45,29.44-21.9,44.27-37.87s27.08-32.65,34.49-47C157.18,42.66,154.24,33.51,149.89,29.47Z"/></g></g></svg>