<svg xmlns="http://www.w3.org/2000/svg" viewBox="0 0 529.46 120.36"><defs><style>.cls-1{font-size:88.11px;font-family:Rubik-Medium, Rubik;font-weight:500;letter-spacing:0.05em;}.cls-1,.cls-3,.cls-5{fill:#142156;}.cls-2{letter-spacing:0.04em;}.cls-3{font-size:29.76px;font-family:Quicksand-Regular, Quicksand;letter-spacing:0.05em;}.cls-4{letter-spacing:-0.01em;}</style></defs><title>Recurso 9</title><g id="Capa_2" data-name="Capa 2"><g id="Capa_1-2" data-name="Capa 1"><text class="cls-1" transform="translate(105.58 98.33)">BER<tspan class="cls-2" x="187.06" y="0">C</tspan><tspan x="251.12" y="0">AM</tspan></text><text class="cls-3" transform="translate(110.45 25.3)">G<tspan class="cls-4" x="25.71" y="0">R</tspan><tspan x="44.02" y="0">UPO</tspan></text><path class="cls-5" d="M52.53,4.42a49.32,49.32,0,0,0-5.83-.36A46.75,46.75,0,0,0,0,50.76C0,52,0,53.13.13,54.32c.07.89,6.15.46,6.09-.24-.09-1.1-.13-2.21-.13-3.32A40.59,40.59,0,0,1,51.52,10.44C52.05,10.5,53,4.49,52.53,4.42Z"/><path class="cls-5" d="M87.31,50.76c0,1.36-.07,2.73-.2,4.07A40.61,40.61,0,0,1,49,91.31c-.77,0-.54,6.13.34,6.08a46.72,46.72,0,0,0,43.81-42c.15-1.53.23-3.11.23-4.67C93.4,48.87,87.31,49.11,87.31,50.76Z"/><path class="cls-5" d="M56.24,61.1C71.43,45.27,90.69,18.52,81.5,9.71A8.55,8.55,0,0,0,75,7.57l-1.12,0,.27,6.08,1.11,0a2.91,2.91,0,0,1,2.05.46c.9.86,1.28,4.95-3.72,14.25C68.91,37,61.19,47.15,51.85,56.89S32.7,74.75,24.25,79.77C15.17,85.16,11.06,85,10.16,84.08c-.47-.45-.64-1.64-.45-3.18l.13-1.11-6-.74-.14,1.11C3.22,83.8,4,86.59,6,88.48a8.27,8.27,0,0,0,6,2.14c4,0,9.18-1.89,15.46-5.61C36.27,79.72,46.53,71.23,56.24,61.1Z"/><path class="cls-5" d="M21.22,71.38c7.86-4.44,16.94-11.64,25.57-20.28S62.63,33.39,67.07,25.53c6.47-11.45,5-16.71,2.56-19.12s-6.31-2.75-11.54-1L57,5.81l2,5.76,1.06-.36c3.39-1.16,4.92-.83,5.26-.49.52.52,1,3.8-3.55,11.81-4.19,7.39-11,16-19.29,24.27S25.62,61.9,18.22,66.08c-8,4.53-11.29,4.08-11.81,3.56s-.61-2.77,1.15-7l.43-1L2.37,59.28l-.43,1C-.69,66.61-.64,71.2,2.1,73.94A7.67,7.67,0,0,0,7.74,76C11.24,76,15.77,74.46,21.22,71.38Z"/><path class="cls-5" d="M90.89,21.94a7.79,7.79,0,0,0-5.39-2L85.4,26a2.1,2.1,0,0,1,1.35.36c1.36,1.26-.06,7-3.32,13.25-4.24,8.2-11.33,17.84-20,27.13C42.05,89.84,27,94.94,24.92,93a3.13,3.13,0,0,1-.47-2.22l-6.09-.26c-.12,3,.69,5.34,2.41,6.94a7.87,7.87,0,0,0,5.56,2c3.81,0,8.77-1.86,14.75-5.54,8.32-5.12,17.85-13.28,26.85-23s16.41-19.8,20.91-28.48C95.31,29.93,93.53,24.39,90.89,21.94Z"/></g></g></svg>