<svg xmlns="http://www.w3.org/2000/svg" viewBox="0 0 408.45 239.53"><defs><style>.cls-1{fill:#03045e;}.cls-2{fill:#fefefe;}</style></defs><title>Recurso 9</title><g id="Capa_2" data-name="Capa 2"><g id="Capa_1-2" data-name="Capa 1"><path d="M326.49,159.73a7.94,7.94,0,1,1,8.32,7.85A8.24,8.24,0,0,1,326.49,159.73Z"/><path class="cls-1" d="M399.35,119.75c-6.79,0-13.57-.16-20.35.06-3,.1-4-.57-3.95-3.81.19-16.36.09-32.72.09-49.07,0-8.45-2.55-11-10.89-11H178.32c-8.09,0-10.71,2.65-10.71,10.81q0,36.51,0,73c0,3.83,1.36,9-.57,11.16-2.23,2.49-7.51.35-11.41.84-3.4.43-4.07-.82-4.05-4.08.13-34.58.08-69.15.07-103.73,0-7.45-2.6-10.24-10-10.3-2.23,0-2.91-.56-2.86-2.84.15-7,.1-14.1,0-21.15,0-6.54-3-9.56-9.51-9.58Q111,0,92.64,0C85.92.06,83.05,3,83,9.91c0,6.65-.14,13.31.06,20,.09,2.82-.4,4-3.58,3.76-4.1-.33-8.24-.08-12.36-.08-8.78,0-11.25,2.44-11.26,11.07,0,5.72-.23,11.45.09,17.15.19,3.33-1,4-4,3.76-3.17-.23-6.38-.06-9.57,0-7.8,0-10.48,2.73-10.48,10.64,0,16.49-.11,33,.08,49.47,0,3.25-.94,3.94-3.94,3.81-5.31-.24-10.65.18-15.95-.14S2.78,130.33,0,134.91v7.18c1.4,2.34,1.23,5,1.58,7.56,3.65,26.58,7.19,53.18,10.9,79.76,1.18,8.47,3.23,10.05,11.69,10.05H280.31c13.57,0,27.14.2,40.7-.1,30.75-.68,59.43-20.62,70-49.44,7-19.17,11.42-39.19,17-58.82C409.82,124.57,406.13,119.8,399.35,119.75ZM311.87,72.69c2.36-2.63,8-.67,12.18-.81,3.85-.13,7.71,0,11.57,0,6.92,0,13.83.1,20.75,0,2.24,0,3,.57,2.85,2.85-.22,4.23,1.44,9.79-.66,12.34s-8,.75-12.16.79c-10.64.11-21.28,0-31.92.1-2.59,0-3.44-.62-3.26-3.26C311.49,80.53,309.8,75,311.87,72.69ZM311.24,106c-.07-1.78.53-2.23,2.25-2.23q21.75.11,43.49,0c1.76,0,2.29.51,2.23,2.25-.12,3.72-.16,7.45,0,11.17.1,2.13-.6,2.66-2.66,2.63-7.18-.12-14.36-.05-21.55-.05-7,0-14.1-.08-21.14.05-2.11,0-2.73-.57-2.64-2.66C311.39,113.42,311.37,109.69,311.24,106ZM248,72.69c2.36-2.63,8-.67,12.18-.81,3.85-.13,7.71,0,11.57,0,6.91,0,13.83.1,20.74,0,2.26,0,3,.59,2.85,2.85-.22,4.23,1.44,9.8-.67,12.35s-8,.74-12.15.78c-10.64.11-21.28,0-31.92.1-2.6,0-3.42-.64-3.25-3.26C247.64,80.53,246,75,248,72.69Zm.23,31.7c2.29-2.07,7.82-.57,11.93-.6,3.85,0,7.71,0,11.57,0,6.91,0,13.83.09,20.74,0,2.22,0,3,.52,2.87,2.83-.23,4.23,1.45,9.78-.65,12.35s-8,.75-12.15.8c-10.64.11-21.28,0-31.91.09-2.56,0-3.53-.57-3.27-3.23C247.8,112.38,245.64,106.75,248.25,104.39ZM247.43,138c0-1.17-.29-2.37,1.65-2.36,11.35.06,22.69,0,35.06,0-5.53,5.48-10.38,10.28-15.2,15.1a3.21,3.21,0,0,1-2.51.87c-5.57,0-11.15-.11-16.71,0-2.07.05-2.38-.77-2.33-2.54C247.5,145.47,247.42,141.75,247.43,138Zm-63.9-63.53c-.08-2,.39-2.73,2.59-2.71q21.33.17,42.68,0c2,0,2.84.36,2.71,2.58a89.69,89.69,0,0,0,0,10.37c.14,2.37-.41,3.2-3,3.13-7-.21-14.1-.07-21.14-.07s-14.1-.07-21.15,0c-2,0-2.83-.37-2.71-2.58C183.72,81.7,183.67,78.09,183.53,74.51Zm0,31.46c-.06-1.78.54-2.23,2.26-2.23q21.74.11,43.48,0c1.77,0,2.29.51,2.23,2.25-.12,3.72-.16,7.45,0,11.17.1,2.12-.6,2.66-2.66,2.63-7.18-.12-14.36-.05-21.54-.05s-14.1-.08-21.15.05c-2.11,0-2.72-.58-2.63-2.66C183.69,113.42,183.66,109.68,183.53,106Zm.66,30.53c2.12-2.55,7.71-.64,11.78-.77,3.85-.12,7.71,0,11.57,0,7.05,0,14.1.09,21.14-.06,2.29-.05,2.94.64,2.83,2.87-.23,4.23,1.42,9.81-.68,12.34s-8,.73-12.16.77c-10.64.11-21.28-.06-31.92.11-2.64,0-3.4-.71-3.23-3.29C183.78,144.36,182.15,139,184.19,136.5ZM104.22,16c5.32,0,10.64.05,16,0,1.83,0,2.93.1,2.81,2.48-.22,4.25-.17,8.51,0,12.76.07,2-.67,2.46-2.51,2.38-3-.14-6.11,0-9.17,0v-.21c-4,0-9.35,1.56-11.52-.41-2.51-2.28-.67-7.73-.76-11.8C98.88,16,99,16,104.22,16ZM72.43,50.34c2.36-2.63,8-.72,12.18-.8,6.51-.13,13,0,19.55,0,9.57,0,19.15.07,28.72-.06,2.25,0,3,.59,2.85,2.85-.22,4.23,1.44,9.8-.67,12.35s-8,.76-12.15.78c-16,.09-31.92,0-47.88.1-2.6,0-3.43-.64-3.25-3.26C72.05,58.18,70.36,52.64,72.43,50.34ZM47.82,84.4c0-2.52.68-3.05,3.09-3,13.7.12,27.4.06,41.1.06,13.44,0,26.87.09,40.31-.07,2.85,0,3.45.75,3.43,3.5q-.18,31.73,0,63.44c0,2.86-.76,3.49-3.51,3.44q-14.76-.27-29.52,0c-2.55,0-3.17-.71-3-3.11.22-3.31.1-6.65.05-10-.11-6.22-3.13-9.28-9.39-9.31-13-.06-26.07-.11-39.11.06-2.84,0-3.47-.73-3.44-3.5Q48,105.15,47.82,84.4Zm337.27,69.24c-3,10.15-4.89,20.7-9.07,30.47-11.15,26.12-31.47,39.15-59.53,39.29-62.52.32-125,.1-187.55.1-32.45,0-64.91,0-97.36.07-2.9,0-4.08-.61-4.48-3.72-3-23.06-6.18-46.09-9.3-69.12-.23-1.7-.36-3.41-.55-5.29,1.21-.06,2.25-.15,3.3-.15,20,0,39.9.05,59.85-.08,2.79,0,3.69.64,3.47,3.47a92,92,0,0,0,0,10.37c.2,5.3,3.24,8.29,8.53,8.57.93,0,1.86,0,2.79,0H299.06c7.51,0,11.48-2.83,11.37-8.11s-3.94-7.85-11.23-7.85h-8.5c5.54-5.53,10.53-10.52,15.53-15.5.64-.65,1.49-.46,2.26-.46,27,0,54,0,81.59,0C388.37,141.86,386.84,147.78,385.09,153.64Z"/><path class="cls-2" d="M342.37,159.37a7.94,7.94,0,1,1-8.12-7.65A8.27,8.27,0,0,1,342.37,159.37Z"/><path class="cls-1" d="M342.37,159.37a7.94,7.94,0,1,1-8.12-7.65A8.27,8.27,0,0,1,342.37,159.37Z"/></g></g></svg>